<?xml version="1.0" encoding="UTF-8" standalone="no"?>
<!DOCTYPE svg PUBLIC "-//W3C//DTD SVG 1.1//EN"
 "http://www.w3.org/Graphics/SVG/1.1/DTD/svg11.dtd">
<!-- Generated by graphviz version 2.43.0 (0)
 -->
<!-- Title: %3 Pages: 1 -->
<svg width="467pt" height="337pt"
 viewBox="0.00 0.00 466.50 337.00" xmlns="http://www.w3.org/2000/svg" xmlns:xlink="http://www.w3.org/1999/xlink">
<g id="graph0" class="graph" transform="scale(1 1) rotate(0) translate(4 333)">
<title>%3</title>
<polygon fill="#eeeeee" stroke="transparent" points="-4,4 -4,-333 462.5,-333 462.5,4 -4,4"/>
<!-- WasteCategory -->
<g id="node1" class="node">
<title>WasteCategory</title>
<g id="a_node1"><a xlink:href="http://WasteCategory_details.html" xlink:title="&lt;TABLE&gt;">
<polygon fill="#3f51b5" stroke="transparent" points="231.5,-98.5 231.5,-117.5 446.5,-117.5 446.5,-98.5 231.5,-98.5"/>
<polygon fill="none" stroke="black" points="231.5,-98.5 231.5,-117.5 446.5,-117.5 446.5,-98.5 231.5,-98.5"/>
<text text-anchor="start" x="293" y="-104.9" font-family="Roboto" font-size="12.00" fill="white">WasteCategory</text>
<polygon fill="#bbdefb" stroke="transparent" points="231.5,-79.5 231.5,-98.5 331.5,-98.5 331.5,-79.5 231.5,-79.5"/>
<polygon fill="none" stroke="black" points="231.5,-79.5 231.5,-98.5 331.5,-98.5 331.5,-79.5 231.5,-79.5"/>
<text text-anchor="start" x="254.5" y="-85.9" font-family="Roboto" font-size="12.00">category</text>
<polygon fill="#bbdefb" stroke="transparent" points="331.5,-79.5 331.5,-98.5 446.5,-98.5 446.5,-79.5 331.5,-79.5"/>
<polygon fill="none" stroke="black" points="331.5,-79.5 331.5,-98.5 446.5,-98.5 446.5,-79.5 331.5,-79.5"/>
<text text-anchor="start" x="334.5" y="-85.9" font-family="Roboto" font-size="12.00">VARCHAR(32) (PK)</text>
<polygon fill="#bbdefb" stroke="transparent" points="231.5,-60.5 231.5,-79.5 331.5,-79.5 331.5,-60.5 231.5,-60.5"/>
<polygon fill="none" stroke="black" points="231.5,-60.5 231.5,-79.5 331.5,-79.5 331.5,-60.5 231.5,-60.5"/>
<text text-anchor="start" x="234.5" y="-66.9" font-family="Roboto" font-size="12.00">time_to_recycle</text>
<polygon fill="#bbdefb" stroke="transparent" points="331.5,-60.5 331.5,-79.5 446.5,-79.5 446.5,-60.5 331.5,-60.5"/>
<polygon fill="none" stroke="black" points="331.5,-60.5 331.5,-79.5 446.5,-79.5 446.5,-60.5 331.5,-60.5"/>
<text text-anchor="start" x="352" y="-66.9" font-family="Roboto" font-size="12.00">DATETIME ()</text>
<polygon fill="#bbdefb" stroke="transparent" points="231.5,-41.5 231.5,-60.5 331.5,-60.5 331.5,-41.5 231.5,-41.5"/>
<polygon fill="none" stroke="black" points="231.5,-41.5 231.5,-60.5 331.5,-60.5 331.5,-41.5 231.5,-41.5"/>
<text text-anchor="start" x="249.5" y="-47.9" font-family="Roboto" font-size="12.00">created_at</text>
<polygon fill="#bbdefb" stroke="transparent" points="331.5,-41.5 331.5,-60.5 446.5,-60.5 446.5,-41.5 331.5,-41.5"/>
<polygon fill="none" stroke="black" points="331.5,-41.5 331.5,-60.5 446.5,-60.5 446.5,-41.5 331.5,-41.5"/>
<text text-anchor="start" x="347.5" y="-47.9" font-family="Roboto" font-size="12.00">TIMESTAMP ()</text>
<polygon fill="#bbdefb" stroke="transparent" points="231.5,-22.5 231.5,-41.5 331.5,-41.5 331.5,-22.5 231.5,-22.5"/>
<polygon fill="none" stroke="black" points="231.5,-22.5 231.5,-41.5 331.5,-41.5 331.5,-22.5 231.5,-22.5"/>
<text text-anchor="start" x="247.5" y="-28.9" font-family="Roboto" font-size="12.00">updated_at</text>
<polygon fill="#bbdefb" stroke="transparent" points="331.5,-22.5 331.5,-41.5 446.5,-41.5 446.5,-22.5 331.5,-22.5"/>
<polygon fill="none" stroke="black" points="331.5,-22.5 331.5,-41.5 446.5,-41.5 446.5,-22.5 331.5,-22.5"/>
<text text-anchor="start" x="347.5" y="-28.9" font-family="Roboto" font-size="12.00">TIMESTAMP ()</text>
</a>
</g>
</g>
<!-- Polluter_OO -->
<g id="node2" class="node">
<title>Polluter_OO</title>
<g id="a_node2"><a xlink:href="http://Polluter_OO_details.html" xlink:title="&lt;TABLE&gt;">
<polygon fill="#3f51b5" stroke="transparent" points="8.5,-117.5 8.5,-136.5 197.5,-136.5 197.5,-117.5 8.5,-117.5"/>
<polygon fill="none" stroke="black" points="8.5,-117.5 8.5,-136.5 197.5,-136.5 197.5,-117.5 8.5,-117.5"/>
<text text-anchor="start" x="67.5" y="-123.9" font-family="Roboto" font-size="12.00" fill="white">Polluter_OO</text>
<polygon fill="#bbdefb" stroke="transparent" points="8.5,-98.5 8.5,-117.5 82.5,-117.5 82.5,-98.5 8.5,-98.5"/>
<polygon fill="none" stroke="black" points="8.5,-98.5 8.5,-117.5 82.5,-117.5 82.5,-98.5 8.5,-98.5"/>
<text text-anchor="start" x="28" y="-104.9" font-family="Roboto" font-size="12.00">name</text>
<polygon fill="#bbdefb" stroke="transparent" points="82.5,-98.5 82.5,-117.5 197.5,-117.5 197.5,-98.5 82.5,-98.5"/>
<polygon fill="none" stroke="black" points="82.5,-98.5 82.5,-117.5 197.5,-117.5 197.5,-98.5 82.5,-98.5"/>
<text text-anchor="start" x="93" y="-104.9" font-family="Roboto" font-size="12.00">VARCHAR(64) ()</text>
<polygon fill="#bbdefb" stroke="transparent" points="8.5,-79.5 8.5,-98.5 82.5,-98.5 82.5,-79.5 8.5,-79.5"/>
<polygon fill="none" stroke="black" points="8.5,-79.5 8.5,-98.5 82.5,-98.5 82.5,-79.5 8.5,-79.5"/>
<text text-anchor="start" x="27.5" y="-85.9" font-family="Roboto" font-size="12.00">x_geo</text>
<polygon fill="#bbdefb" stroke="transparent" points="82.5,-79.5 82.5,-98.5 197.5,-98.5 197.5,-79.5 82.5,-79.5"/>
<polygon fill="none" stroke="black" points="82.5,-79.5 82.5,-98.5 197.5,-98.5 197.5,-79.5 82.5,-79.5"/>
<text text-anchor="start" x="85.5" y="-85.9" font-family="Roboto" font-size="12.00">NUMERIC(12, 6) ()</text>
<polygon fill="#bbdefb" stroke="transparent" points="8.5,-60.5 8.5,-79.5 82.5,-79.5 82.5,-60.5 8.5,-60.5"/>
<polygon fill="none" stroke="black" points="8.5,-60.5 8.5,-79.5 82.5,-79.5 82.5,-60.5 8.5,-60.5"/>
<text text-anchor="start" x="27.5" y="-66.9" font-family="Roboto" font-size="12.00">y_geo</text>
<polygon fill="#bbdefb" stroke="transparent" points="82.5,-60.5 82.5,-79.5 197.5,-79.5 197.5,-60.5 82.5,-60.5"/>
<polygon fill="none" stroke="black" points="82.5,-60.5 82.5,-79.5 197.5,-79.5 197.5,-60.5 82.5,-60.5"/>
<text text-anchor="start" x="85.5" y="-66.9" font-family="Roboto" font-size="12.00">NUMERIC(12, 6) ()</text>
<polygon fill="#bbdefb" stroke="transparent" points="8.5,-41.5 8.5,-60.5 82.5,-60.5 82.5,-41.5 8.5,-41.5"/>
<polygon fill="none" stroke="black" points="8.5,-41.5 8.5,-60.5 82.5,-60.5 82.5,-41.5 8.5,-41.5"/>
<text text-anchor="start" x="40" y="-47.9" font-family="Roboto" font-size="12.00">id</text>
<polygon fill="#bbdefb" stroke="transparent" points="82.5,-41.5 82.5,-60.5 197.5,-60.5 197.5,-41.5 82.5,-41.5"/>
<polygon fill="none" stroke="black" points="82.5,-41.5 82.5,-60.5 197.5,-60.5 197.5,-41.5 82.5,-41.5"/>
<text text-anchor="start" x="97" y="-47.9" font-family="Roboto" font-size="12.00">CHAR(36) (PK)</text>
<polygon fill="#bbdefb" stroke="transparent" points="8.5,-22.5 8.5,-41.5 82.5,-41.5 82.5,-22.5 8.5,-22.5"/>
<polygon fill="none" stroke="black" points="8.5,-22.5 8.5,-41.5 82.5,-41.5 82.5,-22.5 8.5,-22.5"/>
<text text-anchor="start" x="13.5" y="-28.9" font-family="Roboto" font-size="12.00">created_at</text>
<polygon fill="#bbdefb" stroke="transparent" points="82.5,-22.5 82.5,-41.5 197.5,-41.5 197.5,-22.5 82.5,-22.5"/>
<polygon fill="none" stroke="black" points="82.5,-22.5 82.5,-41.5 197.5,-41.5 197.5,-22.5 82.5,-22.5"/>
<text text-anchor="start" x="98.5" y="-28.9" font-family="Roboto" font-size="12.00">TIMESTAMP ()</text>
<polygon fill="#bbdefb" stroke="transparent" points="8.5,-3.5 8.5,-22.5 82.5,-22.5 82.5,-3.5 8.5,-3.5"/>
<polygon fill="none" stroke="black" points="8.5,-3.5 8.5,-22.5 82.5,-22.5 82.5,-3.5 8.5,-3.5"/>
<text text-anchor="start" x="11.5" y="-9.9" font-family="Roboto" font-size="12.00">updated_at</text>
<polygon fill="#bbdefb" stroke="transparent" points="82.5,-3.5 82.5,-22.5 197.5,-22.5 197.5,-3.5 82.5,-3.5"/>
<polygon fill="none" stroke="black" points="82.5,-3.5 82.5,-22.5 197.5,-22.5 197.5,-3.5 82.5,-3.5"/>
<text text-anchor="start" x="98.5" y="-9.9" font-family="Roboto" font-size="12.00">TIMESTAMP ()</text>
</a>
</g>
</g>
<!-- PolluterWaste -->
<g id="node3" class="node">
<title>PolluterWaste</title>
<g id="a_node3"><a xlink:href="http://PolluterWaste_details.html" xlink:title="&lt;TABLE&gt;">
<polygon fill="#3f51b5" stroke="transparent" points="76.5,-305.5 76.5,-324.5 250.5,-324.5 250.5,-305.5 76.5,-305.5"/>
<polygon fill="none" stroke="black" points="76.5,-305.5 76.5,-324.5 250.5,-324.5 250.5,-305.5 76.5,-305.5"/>
<text text-anchor="start" x="122.5" y="-311.9" font-family="Roboto" font-size="12.00" fill="white">PolluterWaste</text>
<polygon fill="#bbdefb" stroke="transparent" points="76.5,-286.5 76.5,-305.5 150.5,-305.5 150.5,-286.5 76.5,-286.5"/>
<polygon fill="none" stroke="black" points="76.5,-286.5 76.5,-305.5 150.5,-305.5 150.5,-286.5 76.5,-286.5"/>
<text text-anchor="start" x="90" y="-292.9" font-family="Roboto" font-size="12.00">amount</text>
<polygon fill="#bbdefb" stroke="transparent" points="150.5,-286.5 150.5,-305.5 250.5,-305.5 250.5,-286.5 150.5,-286.5"/>
<polygon fill="none" stroke="black" points="150.5,-286.5 150.5,-305.5 250.5,-305.5 250.5,-286.5 150.5,-286.5"/>
<text text-anchor="start" x="167.5" y="-292.9" font-family="Roboto" font-size="12.00">INTEGER ()</text>
<polygon fill="#bbdefb" stroke="transparent" points="76.5,-267.5 76.5,-286.5 150.5,-286.5 150.5,-267.5 76.5,-267.5"/>
<polygon fill="none" stroke="black" points="76.5,-267.5 76.5,-286.5 150.5,-286.5 150.5,-267.5 76.5,-267.5"/>
<text text-anchor="start" x="86.5" y="-273.9" font-family="Roboto" font-size="12.00">category</text>
<polygon fill="#bbdefb" stroke="transparent" points="150.5,-267.5 150.5,-286.5 250.5,-286.5 250.5,-267.5 150.5,-267.5"/>
<polygon fill="none" stroke="black" points="150.5,-267.5 150.5,-286.5 250.5,-286.5 250.5,-267.5 150.5,-267.5"/>
<text text-anchor="start" x="153.5" y="-273.9" font-family="Roboto" font-size="12.00">VARCHAR(32) ()</text>
<polygon fill="#bbdefb" stroke="transparent" points="76.5,-248.5 76.5,-267.5 150.5,-267.5 150.5,-248.5 76.5,-248.5"/>
<polygon fill="none" stroke="black" points="76.5,-248.5 76.5,-267.5 150.5,-267.5 150.5,-248.5 76.5,-248.5"/>
<text text-anchor="start" x="82" y="-254.9" font-family="Roboto" font-size="12.00">polluter_id</text>
<polygon fill="#bbdefb" stroke="transparent" points="150.5,-248.5 150.5,-267.5 250.5,-267.5 250.5,-248.5 150.5,-248.5"/>
<polygon fill="none" stroke="black" points="150.5,-248.5 150.5,-267.5 250.5,-267.5 250.5,-248.5 150.5,-248.5"/>
<text text-anchor="start" x="165" y="-254.9" font-family="Roboto" font-size="12.00">CHAR(36) ()</text>
<polygon fill="#bbdefb" stroke="transparent" points="76.5,-229.5 76.5,-248.5 150.5,-248.5 150.5,-229.5 76.5,-229.5"/>
<polygon fill="none" stroke="black" points="76.5,-229.5 76.5,-248.5 150.5,-248.5 150.5,-229.5 76.5,-229.5"/>
<text text-anchor="start" x="108" y="-235.9" font-family="Roboto" font-size="12.00">id</text>
<polygon fill="#bbdefb" stroke="transparent" points="150.5,-229.5 150.5,-248.5 250.5,-248.5 250.5,-229.5 150.5,-229.5"/>
<polygon fill="none" stroke="black" points="150.5,-229.5 150.5,-248.5 250.5,-248.5 250.5,-229.5 150.5,-229.5"/>
<text text-anchor="start" x="157.5" y="-235.9" font-family="Roboto" font-size="12.00">CHAR(36) (PK)</text>
<polygon fill="#bbdefb" stroke="transparent" points="76.5,-210.5 76.5,-229.5 150.5,-229.5 150.5,-210.5 76.5,-210.5"/>
<polygon fill="none" stroke="black" points="76.5,-210.5 76.5,-229.5 150.5,-229.5 150.5,-210.5 76.5,-210.5"/>
<text text-anchor="start" x="81.5" y="-216.9" font-family="Roboto" font-size="12.00">created_at</text>
<polygon fill="#bbdefb" stroke="transparent" points="150.5,-210.5 150.5,-229.5 250.5,-229.5 250.5,-210.5 150.5,-210.5"/>
<polygon fill="none" stroke="black" points="150.5,-210.5 150.5,-229.5 250.5,-229.5 250.5,-210.5 150.5,-210.5"/>
<text text-anchor="start" x="159" y="-216.9" font-family="Roboto" font-size="12.00">TIMESTAMP ()</text>
<polygon fill="#bbdefb" stroke="transparent" points="76.5,-191.5 76.5,-210.5 150.5,-210.5 150.5,-191.5 76.5,-191.5"/>
<polygon fill="none" stroke="black" points="76.5,-191.5 76.5,-210.5 150.5,-210.5 150.5,-191.5 76.5,-191.5"/>
<text text-anchor="start" x="79.5" y="-197.9" font-family="Roboto" font-size="12.00">updated_at</text>
<polygon fill="#bbdefb" stroke="transparent" points="150.5,-191.5 150.5,-210.5 250.5,-210.5 250.5,-191.5 150.5,-191.5"/>
<polygon fill="none" stroke="black" points="150.5,-191.5 150.5,-210.5 250.5,-210.5 250.5,-191.5 150.5,-191.5"/>
<text text-anchor="start" x="159" y="-197.9" font-family="Roboto" font-size="12.00">TIMESTAMP ()</text>
</a>
</g>
</g>
<!-- Polluter_OO&#45;&gt;PolluterWaste -->
<g id="edge1" class="edge">
<title>Polluter_OO&#45;&gt;PolluterWaste</title>
<g id="a_edge1"><a xlink:title="Relation between Polluter_OO and PolluterWaste">
<path fill="none" stroke="#1e88e5" stroke-dasharray="5,2" d="M135.05,-141.22C137.38,-147.18 139.57,-153.16 141.5,-159 143.5,-165.06 145.38,-171.39 147.13,-177.79"/>
<polygon fill="#1e88e5" stroke="#1e88e5" points="143.86,-179.08 149.77,-187.87 150.63,-177.31 143.86,-179.08"/>
</a>
</g>
<text text-anchor="middle" x="182" y="-162" font-family="Roboto" font-size="10.00">polluter_waste</text>
</g>
<!-- PolluterWaste&#45;&gt;WasteCategory -->
<g id="edge3" class="edge">
<title>PolluterWaste&#45;&gt;WasteCategory</title>
<g id="a_edge3"><a xlink:title="Relation between PolluterWaste and WasteCategory">
<path fill="none" stroke="#1e88e5" stroke-dasharray="5,2" d="M228.91,-187.98C246.92,-168.84 266.27,-148.27 283.61,-129.84"/>
<polygon fill="#1e88e5" stroke="#1e88e5" points="286.61,-131.76 290.92,-122.07 281.52,-126.96 286.61,-131.76"/>
</a>
</g>
<text text-anchor="middle" x="266.5" y="-162" font-family="Roboto" font-size="10.00">waste</text>
</g>
<!-- PolluterWaste&#45;&gt;Polluter_OO -->
<g id="edge2" class="edge">
<title>PolluterWaste&#45;&gt;Polluter_OO</title>
<g id="a_edge2"><a xlink:title="Relation between PolluterWaste and Polluter_OO">
<path fill="none" stroke="#1e88e5" stroke-dasharray="5,2" d="M107.07,-187.94C104.08,-182.09 101.49,-176.08 99.5,-170 97.55,-164.02 96.22,-157.73 95.37,-151.34"/>
<polygon fill="#1e88e5" stroke="#1e88e5" points="98.84,-150.87 94.42,-141.25 91.87,-151.53 98.84,-150.87"/>
</a>
</g>
<text text-anchor="middle" x="118.5" y="-162" font-family="Roboto" font-size="10.00">polluter</text>
</g>
<!-- TestCI3 -->
<g id="node4" class="node">
<title>TestCI3</title>
<g id="a_node4"><a xlink:href="http://TestCI3_details.html" xlink:title="&lt;TABLE&gt;">
<polygon fill="#3f51b5" stroke="transparent" points="284.5,-286.5 284.5,-305.5 450.5,-305.5 450.5,-286.5 284.5,-286.5"/>
<polygon fill="none" stroke="black" points="284.5,-286.5 284.5,-305.5 450.5,-305.5 450.5,-286.5 284.5,-286.5"/>
<text text-anchor="start" x="346" y="-292.9" font-family="Roboto" font-size="12.00" fill="white">TestCI3</text>
<polygon fill="#bbdefb" stroke="transparent" points="284.5,-267.5 284.5,-286.5 358.5,-286.5 358.5,-267.5 284.5,-267.5"/>
<polygon fill="none" stroke="black" points="284.5,-267.5 284.5,-286.5 358.5,-286.5 358.5,-267.5 284.5,-267.5"/>
<text text-anchor="start" x="310.5" y="-273.9" font-family="Roboto" font-size="12.00">kek</text>
<polygon fill="#bbdefb" stroke="transparent" points="358.5,-267.5 358.5,-286.5 450.5,-286.5 450.5,-267.5 358.5,-267.5"/>
<polygon fill="none" stroke="black" points="358.5,-267.5 358.5,-286.5 450.5,-286.5 450.5,-267.5 358.5,-267.5"/>
<text text-anchor="start" x="369" y="-273.9" font-family="Roboto" font-size="12.00">CHAR(32) ()</text>
<polygon fill="#bbdefb" stroke="transparent" points="284.5,-248.5 284.5,-267.5 358.5,-267.5 358.5,-248.5 284.5,-248.5"/>
<polygon fill="none" stroke="black" points="284.5,-248.5 284.5,-267.5 358.5,-267.5 358.5,-248.5 284.5,-248.5"/>
<text text-anchor="start" x="316" y="-254.9" font-family="Roboto" font-size="12.00">id</text>
<polygon fill="#bbdefb" stroke="transparent" points="358.5,-248.5 358.5,-267.5 450.5,-267.5 450.5,-248.5 358.5,-248.5"/>
<polygon fill="none" stroke="black" points="358.5,-248.5 358.5,-267.5 450.5,-267.5 450.5,-248.5 358.5,-248.5"/>
<text text-anchor="start" x="361.5" y="-254.9" font-family="Roboto" font-size="12.00">CHAR(36) (PK)</text>
<polygon fill="#bbdefb" stroke="transparent" points="284.5,-229.5 284.5,-248.5 358.5,-248.5 358.5,-229.5 284.5,-229.5"/>
<polygon fill="none" stroke="black" points="284.5,-229.5 284.5,-248.5 358.5,-248.5 358.5,-229.5 284.5,-229.5"/>
<text text-anchor="start" x="289.5" y="-235.9" font-family="Roboto" font-size="12.00">created_at</text>
<polygon fill="#bbdefb" stroke="transparent" points="358.5,-229.5 358.5,-248.5 450.5,-248.5 450.5,-229.5 358.5,-229.5"/>
<polygon fill="none" stroke="black" points="358.5,-229.5 358.5,-248.5 450.5,-248.5 450.5,-229.5 358.5,-229.5"/>
<text text-anchor="start" x="363" y="-235.9" font-family="Roboto" font-size="12.00">TIMESTAMP ()</text>
<polygon fill="#bbdefb" stroke="transparent" points="284.5,-210.5 284.5,-229.5 358.5,-229.5 358.5,-210.5 284.5,-210.5"/>
<polygon fill="none" stroke="black" points="284.5,-210.5 284.5,-229.5 358.5,-229.5 358.5,-210.5 284.5,-210.5"/>
<text text-anchor="start" x="287.5" y="-216.9" font-family="Roboto" font-size="12.00">updated_at</text>
<polygon fill="#bbdefb" stroke="transparent" points="358.5,-210.5 358.5,-229.5 450.5,-229.5 450.5,-210.5 358.5,-210.5"/>
<polygon fill="none" stroke="black" points="358.5,-210.5 358.5,-229.5 450.5,-229.5 450.5,-210.5 358.5,-210.5"/>
<text text-anchor="start" x="363" y="-216.9" font-family="Roboto" font-size="12.00">TIMESTAMP ()</text>
</a>
</g>
</g>
</g>
</svg>
