<?xml version="1.0" encoding="UTF-8" standalone="no"?>
<!DOCTYPE svg PUBLIC "-//W3C//DTD SVG 1.1//EN"
 "http://www.w3.org/Graphics/SVG/1.1/DTD/svg11.dtd">
<!-- Generated by graphviz version 2.43.0 (0)
 -->
<!-- Title: %3 Pages: 1 -->
<svg width="467pt" height="356pt"
 viewBox="0.00 0.00 466.50 356.00" xmlns="http://www.w3.org/2000/svg" xmlns:xlink="http://www.w3.org/1999/xlink">
<g id="graph0" class="graph" transform="scale(1 1) rotate(0) translate(4 352)">
<title>%3</title>
<polygon fill="#eeeeee" stroke="transparent" points="-4,4 -4,-352 462.5,-352 462.5,4 -4,4"/>
<!-- WasteCategory -->
<g id="node1" class="node">
<title>WasteCategory</title>
<g id="a_node1"><a xlink:href="http://WasteCategory_details.html" xlink:title="&lt;TABLE&gt;">
<polygon fill="#3f51b5" stroke="transparent" points="231.5,-98.5 231.5,-117.5 446.5,-117.5 446.5,-98.5 231.5,-98.5"/>
<polygon fill="none" stroke="black" points="231.5,-98.5 231.5,-117.5 446.5,-117.5 446.5,-98.5 231.5,-98.5"/>
<text text-anchor="start" x="293" y="-104.9" font-family="Roboto" font-size="12.00" fill="white">WasteCategory</text>
<polygon fill="#bbdefb" stroke="transparent" points="231.5,-79.5 231.5,-98.5 331.5,-98.5 331.5,-79.5 231.5,-79.5"/>
<polygon fill="none" stroke="black" points="231.5,-79.5 231.5,-98.5 331.5,-98.5 331.5,-79.5 231.5,-79.5"/>
<text text-anchor="start" x="254.5" y="-85.9" font-family="Roboto" font-size="12.00">category</text>
<polygon fill="#bbdefb" stroke="transparent" points="331.5,-79.5 331.5,-98.5 446.5,-98.5 446.5,-79.5 331.5,-79.5"/>
<polygon fill="none" stroke="black" points="331.5,-79.5 331.5,-98.5 446.5,-98.5 446.5,-79.5 331.5,-79.5"/>
<text text-anchor="start" x="334.5" y="-85.9" font-family="Roboto" font-size="12.00">VARCHAR(32) (PK)</text>
<polygon fill="#bbdefb" stroke="transparent" points="231.5,-60.5 231.5,-79.5 331.5,-79.5 331.5,-60.5 231.5,-60.5"/>
<polygon fill="none" stroke="black" points="231.5,-60.5 231.5,-79.5 331.5,-79.5 331.5,-60.5 231.5,-60.5"/>
<text text-anchor="start" x="234.5" y="-66.9" font-family="Roboto" font-size="12.00">time_to_recycle</text>
<polygon fill="#bbdefb" stroke="transparent" points="331.5,-60.5 331.5,-79.5 446.5,-79.5 446.5,-60.5 331.5,-60.5"/>
<polygon fill="none" stroke="black" points="331.5,-60.5 331.5,-79.5 446.5,-79.5 446.5,-60.5 331.5,-60.5"/>
<text text-anchor="start" x="352" y="-66.9" font-family="Roboto" font-size="12.00">DATETIME ()</text>
<polygon fill="#bbdefb" stroke="transparent" points="231.5,-41.5 231.5,-60.5 331.5,-60.5 331.5,-41.5 231.5,-41.5"/>
<polygon fill="none" stroke="black" points="231.5,-41.5 231.5,-60.5 331.5,-60.5 331.5,-41.5 231.5,-41.5"/>
<text text-anchor="start" x="249.5" y="-47.9" font-family="Roboto" font-size="12.00">created_at</text>
<polygon fill="#bbdefb" stroke="transparent" points="331.5,-41.5 331.5,-60.5 446.5,-60.5 446.5,-41.5 331.5,-41.5"/>
<polygon fill="none" stroke="black" points="331.5,-41.5 331.5,-60.5 446.5,-60.5 446.5,-41.5 331.5,-41.5"/>
<text text-anchor="start" x="347.5" y="-47.9" font-family="Roboto" font-size="12.00">TIMESTAMP ()</text>
<polygon fill="#bbdefb" stroke="transparent" points="231.5,-22.5 231.5,-41.5 331.5,-41.5 331.5,-22.5 231.5,-22.5"/>
<polygon fill="none" stroke="black" points="231.5,-22.5 231.5,-41.5 331.5,-41.5 331.5,-22.5 231.5,-22.5"/>
<text text-anchor="start" x="247.5" y="-28.9" font-family="Roboto" font-size="12.00">updated_at</text>
<polygon fill="#bbdefb" stroke="transparent" points="331.5,-22.5 331.5,-41.5 446.5,-41.5 446.5,-22.5 331.5,-22.5"/>
<polygon fill="none" stroke="black" points="331.5,-22.5 331.5,-41.5 446.5,-41.5 446.5,-22.5 331.5,-22.5"/>
<text text-anchor="start" x="347.5" y="-28.9" font-family="Roboto" font-size="12.00">TIMESTAMP ()</text>
</a>
</g>
</g>
<!-- Polluter_OO -->
<g id="node2" class="node">
<title>Polluter_OO</title>
<g id="a_node2"><a xlink:href="http://Polluter_OO_details.html" xlink:title="&lt;TABLE&gt;">
<polygon fill="#3f51b5" stroke="transparent" points="8.5,-117.5 8.5,-136.5 197.5,-136.5 197.5,-117.5 8.5,-117.5"/>
<polygon fill="none" stroke="black" points="8.5,-117.5 8.5,-136.5 197.5,-136.5 197.5,-117.5 8.5,-117.5"/>
<text text-anchor="start" x="67.5" y="-123.9" font-family="Roboto" font-size="12.00" fill="white">Polluter_OO</text>
<polygon fill="#bbdefb" stroke="transparent" points="8.5,-98.5 8.5,-117.5 82.5,-117.5 82.5,-98.5 8.5,-98.5"/>
<polygon fill="none" stroke="black" points="8.5,-98.5 8.5,-117.5 82.5,-117.5 82.5,-98.5 8.5,-98.5"/>
<text text-anchor="start" x="28" y="-104.9" font-family="Roboto" font-size="12.00">name</text>
<polygon fill="#bbdefb" stroke="transparent" points="82.5,-98.5 82.5,-117.5 197.5,-117.5 197.5,-98.5 82.5,-98.5"/>
<polygon fill="none" stroke="black" points="82.5,-98.5 82.5,-117.5 197.5,-117.5 197.5,-98.5 82.5,-98.5"/>
<text text-anchor="start" x="93" y="-104.9" font-family="Roboto" font-size="12.00">VARCHAR(64) ()</text>
<polygon fill="#bbdefb" stroke="transparent" points="8.5,-79.5 8.5,-98.5 82.5,-98.5 82.5,-79.5 8.5,-79.5"/>
<polygon fill="none" stroke="black" points="8.5,-79.5 8.5,-98.5 82.5,-98.5 82.5,-79.5 8.5,-79.5"/>
<text text-anchor="start" x="27.5" y="-85.9" font-family="Roboto" font-size="12.00">x_geo</text>
<polygon fill="#bbdefb" stroke="transparent" points="82.5,-79.5 82.5,-98.5 197.5,-98.5 197.5,-79.5 82.5,-79.5"/>
<polygon fill="none" stroke="black" points="82.5,-79.5 82.5,-98.5 197.5,-98.5 197.5,-79.5 82.5,-79.5"/>
<text text-anchor="start" x="85.5" y="-85.9" font-family="Roboto" font-size="12.00">NUMERIC(12, 6) ()</text>
<polygon fill="#bbdefb" stroke="transparent" points="8.5,-60.5 8.5,-79.5 82.5,-79.5 82.5,-60.5 8.5,-60.5"/>
<polygon fill="none" stroke="black" points="8.5,-60.5 8.5,-79.5 82.5,-79.5 82.5,-60.5 8.5,-60.5"/>
<text text-anchor="start" x="27.5" y="-66.9" font-family="Roboto" font-size="12.00">y_geo</text>
<polygon fill="#bbdefb" stroke="transparent" points="82.5,-60.5 82.5,-79.5 197.5,-79.5 197.5,-60.5 82.5,-60.5"/>
<polygon fill="none" stroke="black" points="82.5,-60.5 82.5,-79.5 197.5,-79.5 197.5,-60.5 82.5,-60.5"/>
<text text-anchor="start" x="85.5" y="-66.9" font-family="Roboto" font-size="12.00">NUMERIC(12, 6) ()</text>
<polygon fill="#bbdefb" stroke="transparent" points="8.5,-41.5 8.5,-60.5 82.5,-60.5 82.5,-41.5 8.5,-41.5"/>
<polygon fill="none" stroke="black" points="8.5,-41.5 8.5,-60.5 82.5,-60.5 82.5,-41.5 8.5,-41.5"/>
<text text-anchor="start" x="40" y="-47.9" font-family="Roboto" font-size="12.00">id</text>
<polygon fill="#bbdefb" stroke="transparent" points="82.5,-41.5 82.5,-60.5 197.5,-60.5 197.5,-41.5 82.5,-41.5"/>
<polygon fill="none" stroke="black" points="82.5,-41.5 82.5,-60.5 197.5,-60.5 197.5,-41.5 82.5,-41.5"/>
<text text-anchor="start" x="97" y="-47.9" font-family="Roboto" font-size="12.00">CHAR(36) (PK)</text>
<polygon fill="#bbdefb" stroke="transparent" points="8.5,-22.5 8.5,-41.5 82.5,-41.5 82.5,-22.5 8.5,-22.5"/>
<polygon fill="none" stroke="black" points="8.5,-22.5 8.5,-41.5 82.5,-41.5 82.5,-22.5 8.5,-22.5"/>
<text text-anchor="start" x="13.5" y="-28.9" font-family="Roboto" font-size="12.00">created_at</text>
<polygon fill="#bbdefb" stroke="transparent" points="82.5,-22.5 82.5,-41.5 197.5,-41.5 197.5,-22.5 82.5,-22.5"/>
<polygon fill="none" stroke="black" points="82.5,-22.5 82.5,-41.5 197.5,-41.5 197.5,-22.5 82.5,-22.5"/>
<text text-anchor="start" x="98.5" y="-28.9" font-family="Roboto" font-size="12.00">TIMESTAMP ()</text>
<polygon fill="#bbdefb" stroke="transparent" points="8.5,-3.5 8.5,-22.5 82.5,-22.5 82.5,-3.5 8.5,-3.5"/>
<polygon fill="none" stroke="black" points="8.5,-3.5 8.5,-22.5 82.5,-22.5 82.5,-3.5 8.5,-3.5"/>
<text text-anchor="start" x="11.5" y="-9.9" font-family="Roboto" font-size="12.00">updated_at</text>
<polygon fill="#bbdefb" stroke="transparent" points="82.5,-3.5 82.5,-22.5 197.5,-22.5 197.5,-3.5 82.5,-3.5"/>
<polygon fill="none" stroke="black" points="82.5,-3.5 82.5,-22.5 197.5,-22.5 197.5,-3.5 82.5,-3.5"/>
<text text-anchor="start" x="98.5" y="-9.9" font-family="Roboto" font-size="12.00">TIMESTAMP ()</text>
</a>
</g>
</g>
<!-- PolluterWaste -->
<g id="node3" class="node">
<title>PolluterWaste</title>
<g id="a_node3"><a xlink:href="http://PolluterWaste_details.html" xlink:title="&lt;TABLE&gt;">
<polygon fill="#3f51b5" stroke="transparent" points="76.5,-325 76.5,-344 250.5,-344 250.5,-325 76.5,-325"/>
<polygon fill="none" stroke="black" points="76.5,-325 76.5,-344 250.5,-344 250.5,-325 76.5,-325"/>
<text text-anchor="start" x="122.5" y="-331.4" font-family="Roboto" font-size="12.00" fill="white">PolluterWaste</text>
<polygon fill="#bbdefb" stroke="transparent" points="76.5,-306 76.5,-325 150.5,-325 150.5,-306 76.5,-306"/>
<polygon fill="none" stroke="black" points="76.5,-306 76.5,-325 150.5,-325 150.5,-306 76.5,-306"/>
<text text-anchor="start" x="90" y="-312.4" font-family="Roboto" font-size="12.00">amount</text>
<polygon fill="#bbdefb" stroke="transparent" points="150.5,-306 150.5,-325 250.5,-325 250.5,-306 150.5,-306"/>
<polygon fill="none" stroke="black" points="150.5,-306 150.5,-325 250.5,-325 250.5,-306 150.5,-306"/>
<text text-anchor="start" x="167.5" y="-312.4" font-family="Roboto" font-size="12.00">INTEGER ()</text>
<polygon fill="#bbdefb" stroke="transparent" points="76.5,-287 76.5,-306 150.5,-306 150.5,-287 76.5,-287"/>
<polygon fill="none" stroke="black" points="76.5,-287 76.5,-306 150.5,-306 150.5,-287 76.5,-287"/>
<text text-anchor="start" x="86.5" y="-293.4" font-family="Roboto" font-size="12.00">category</text>
<polygon fill="#bbdefb" stroke="transparent" points="150.5,-287 150.5,-306 250.5,-306 250.5,-287 150.5,-287"/>
<polygon fill="none" stroke="black" points="150.5,-287 150.5,-306 250.5,-306 250.5,-287 150.5,-287"/>
<text text-anchor="start" x="153.5" y="-293.4" font-family="Roboto" font-size="12.00">VARCHAR(32) ()</text>
<polygon fill="#bbdefb" stroke="transparent" points="76.5,-268 76.5,-287 150.5,-287 150.5,-268 76.5,-268"/>
<polygon fill="none" stroke="black" points="76.5,-268 76.5,-287 150.5,-287 150.5,-268 76.5,-268"/>
<text text-anchor="start" x="82" y="-274.4" font-family="Roboto" font-size="12.00">polluter_id</text>
<polygon fill="#bbdefb" stroke="transparent" points="150.5,-268 150.5,-287 250.5,-287 250.5,-268 150.5,-268"/>
<polygon fill="none" stroke="black" points="150.5,-268 150.5,-287 250.5,-287 250.5,-268 150.5,-268"/>
<text text-anchor="start" x="165" y="-274.4" font-family="Roboto" font-size="12.00">CHAR(36) ()</text>
<polygon fill="#bbdefb" stroke="transparent" points="76.5,-249 76.5,-268 150.5,-268 150.5,-249 76.5,-249"/>
<polygon fill="none" stroke="black" points="76.5,-249 76.5,-268 150.5,-268 150.5,-249 76.5,-249"/>
<text text-anchor="start" x="80" y="-255.4" font-family="Roboto" font-size="12.00">contract_id</text>
<polygon fill="#bbdefb" stroke="transparent" points="150.5,-249 150.5,-268 250.5,-268 250.5,-249 150.5,-249"/>
<polygon fill="none" stroke="black" points="150.5,-249 150.5,-268 250.5,-268 250.5,-249 150.5,-249"/>
<text text-anchor="start" x="165" y="-255.4" font-family="Roboto" font-size="12.00">CHAR(36) ()</text>
<polygon fill="#bbdefb" stroke="transparent" points="76.5,-230 76.5,-249 150.5,-249 150.5,-230 76.5,-230"/>
<polygon fill="none" stroke="black" points="76.5,-230 76.5,-249 150.5,-249 150.5,-230 76.5,-230"/>
<text text-anchor="start" x="108" y="-236.4" font-family="Roboto" font-size="12.00">id</text>
<polygon fill="#bbdefb" stroke="transparent" points="150.5,-230 150.5,-249 250.5,-249 250.5,-230 150.5,-230"/>
<polygon fill="none" stroke="black" points="150.5,-230 150.5,-249 250.5,-249 250.5,-230 150.5,-230"/>
<text text-anchor="start" x="157.5" y="-236.4" font-family="Roboto" font-size="12.00">CHAR(36) (PK)</text>
<polygon fill="#bbdefb" stroke="transparent" points="76.5,-211 76.5,-230 150.5,-230 150.5,-211 76.5,-211"/>
<polygon fill="none" stroke="black" points="76.5,-211 76.5,-230 150.5,-230 150.5,-211 76.5,-211"/>
<text text-anchor="start" x="81.5" y="-217.4" font-family="Roboto" font-size="12.00">created_at</text>
<polygon fill="#bbdefb" stroke="transparent" points="150.5,-211 150.5,-230 250.5,-230 250.5,-211 150.5,-211"/>
<polygon fill="none" stroke="black" points="150.5,-211 150.5,-230 250.5,-230 250.5,-211 150.5,-211"/>
<text text-anchor="start" x="159" y="-217.4" font-family="Roboto" font-size="12.00">TIMESTAMP ()</text>
<polygon fill="#bbdefb" stroke="transparent" points="76.5,-192 76.5,-211 150.5,-211 150.5,-192 76.5,-192"/>
<polygon fill="none" stroke="black" points="76.5,-192 76.5,-211 150.5,-211 150.5,-192 76.5,-192"/>
<text text-anchor="start" x="79.5" y="-198.4" font-family="Roboto" font-size="12.00">updated_at</text>
<polygon fill="#bbdefb" stroke="transparent" points="150.5,-192 150.5,-211 250.5,-211 250.5,-192 150.5,-192"/>
<polygon fill="none" stroke="black" points="150.5,-192 150.5,-211 250.5,-211 250.5,-192 150.5,-192"/>
<text text-anchor="start" x="159" y="-198.4" font-family="Roboto" font-size="12.00">TIMESTAMP ()</text>
</a>
</g>
</g>
<!-- Polluter_OO&#45;&gt;PolluterWaste -->
<g id="edge1" class="edge">
<title>Polluter_OO&#45;&gt;PolluterWaste</title>
<g id="a_edge1"><a xlink:title="Relation between Polluter_OO and PolluterWaste">
<path fill="none" stroke="#1e88e5" stroke-dasharray="5,2" d="M135.17,-141.18C137.47,-147.15 139.62,-153.14 141.5,-159 143.44,-165.04 145.24,-171.32 146.91,-177.69"/>
<polygon fill="#1e88e5" stroke="#1e88e5" points="143.6,-178.89 149.43,-187.74 150.39,-177.19 143.6,-178.89"/>
</a>
</g>
<text text-anchor="middle" x="181" y="-162" font-family="Roboto" font-size="10.00">polluter_waste</text>
</g>
<!-- PolluterWaste&#45;&gt;WasteCategory -->
<g id="edge3" class="edge">
<title>PolluterWaste&#45;&gt;WasteCategory</title>
<g id="a_edge3"><a xlink:title="Relation between PolluterWaste and WasteCategory">
<path fill="none" stroke="#1e88e5" stroke-dasharray="5,2" d="M234.43,-187.76C251.75,-168.41 269.98,-148.05 286.25,-129.87"/>
<polygon fill="#1e88e5" stroke="#1e88e5" points="289.04,-132 293.1,-122.22 283.82,-127.34 289.04,-132"/>
</a>
</g>
<text text-anchor="middle" x="271.5" y="-162" font-family="Roboto" font-size="10.00">waste</text>
</g>
<!-- PolluterWaste&#45;&gt;Polluter_OO -->
<g id="edge2" class="edge">
<title>PolluterWaste&#45;&gt;Polluter_OO</title>
<g id="a_edge2"><a xlink:title="Relation between PolluterWaste and Polluter_OO">
<path fill="none" stroke="#1e88e5" stroke-dasharray="5,2" d="M106.26,-187.8C103.6,-181.95 101.3,-175.99 99.5,-170 97.69,-163.98 96.47,-157.66 95.69,-151.24"/>
<polygon fill="#1e88e5" stroke="#1e88e5" points="99.16,-150.78 94.82,-141.12 92.19,-151.38 99.16,-150.78"/>
</a>
</g>
<text text-anchor="middle" x="118.5" y="-162" font-family="Roboto" font-size="10.00">polluter</text>
</g>
<!-- TestCI3 -->
<g id="node4" class="node">
<title>TestCI3</title>
<g id="a_node4"><a xlink:href="http://TestCI3_details.html" xlink:title="&lt;TABLE&gt;">
<polygon fill="#3f51b5" stroke="transparent" points="284.5,-296 284.5,-315 450.5,-315 450.5,-296 284.5,-296"/>
<polygon fill="none" stroke="black" points="284.5,-296 284.5,-315 450.5,-315 450.5,-296 284.5,-296"/>
<text text-anchor="start" x="346" y="-302.4" font-family="Roboto" font-size="12.00" fill="white">TestCI3</text>
<polygon fill="#bbdefb" stroke="transparent" points="284.5,-277 284.5,-296 358.5,-296 358.5,-277 284.5,-277"/>
<polygon fill="none" stroke="black" points="284.5,-277 284.5,-296 358.5,-296 358.5,-277 284.5,-277"/>
<text text-anchor="start" x="310.5" y="-283.4" font-family="Roboto" font-size="12.00">kek</text>
<polygon fill="#bbdefb" stroke="transparent" points="358.5,-277 358.5,-296 450.5,-296 450.5,-277 358.5,-277"/>
<polygon fill="none" stroke="black" points="358.5,-277 358.5,-296 450.5,-296 450.5,-277 358.5,-277"/>
<text text-anchor="start" x="369" y="-283.4" font-family="Roboto" font-size="12.00">CHAR(32) ()</text>
<polygon fill="#bbdefb" stroke="transparent" points="284.5,-258 284.5,-277 358.5,-277 358.5,-258 284.5,-258"/>
<polygon fill="none" stroke="black" points="284.5,-258 284.5,-277 358.5,-277 358.5,-258 284.5,-258"/>
<text text-anchor="start" x="316" y="-264.4" font-family="Roboto" font-size="12.00">id</text>
<polygon fill="#bbdefb" stroke="transparent" points="358.5,-258 358.5,-277 450.5,-277 450.5,-258 358.5,-258"/>
<polygon fill="none" stroke="black" points="358.5,-258 358.5,-277 450.5,-277 450.5,-258 358.5,-258"/>
<text text-anchor="start" x="361.5" y="-264.4" font-family="Roboto" font-size="12.00">CHAR(36) (PK)</text>
<polygon fill="#bbdefb" stroke="transparent" points="284.5,-239 284.5,-258 358.5,-258 358.5,-239 284.5,-239"/>
<polygon fill="none" stroke="black" points="284.5,-239 284.5,-258 358.5,-258 358.5,-239 284.5,-239"/>
<text text-anchor="start" x="289.5" y="-245.4" font-family="Roboto" font-size="12.00">created_at</text>
<polygon fill="#bbdefb" stroke="transparent" points="358.5,-239 358.5,-258 450.5,-258 450.5,-239 358.5,-239"/>
<polygon fill="none" stroke="black" points="358.5,-239 358.5,-258 450.5,-258 450.5,-239 358.5,-239"/>
<text text-anchor="start" x="363" y="-245.4" font-family="Roboto" font-size="12.00">TIMESTAMP ()</text>
<polygon fill="#bbdefb" stroke="transparent" points="284.5,-220 284.5,-239 358.5,-239 358.5,-220 284.5,-220"/>
<polygon fill="none" stroke="black" points="284.5,-220 284.5,-239 358.5,-239 358.5,-220 284.5,-220"/>
<text text-anchor="start" x="287.5" y="-226.4" font-family="Roboto" font-size="12.00">updated_at</text>
<polygon fill="#bbdefb" stroke="transparent" points="358.5,-220 358.5,-239 450.5,-239 450.5,-220 358.5,-220"/>
<polygon fill="none" stroke="black" points="358.5,-220 358.5,-239 450.5,-239 450.5,-220 358.5,-220"/>
<text text-anchor="start" x="363" y="-226.4" font-family="Roboto" font-size="12.00">TIMESTAMP ()</text>
</a>
</g>
</g>
</g>
</svg>
