<?xml version="1.0" encoding="UTF-8" standalone="no"?>
<!DOCTYPE svg PUBLIC "-//W3C//DTD SVG 1.1//EN"
 "http://www.w3.org/Graphics/SVG/1.1/DTD/svg11.dtd">
<!-- Generated by graphviz version 2.43.0 (0)
 -->
<!-- Title: %3 Pages: 1 -->
<svg width="483pt" height="713pt"
 viewBox="0.00 0.00 483.00 713.00" xmlns="http://www.w3.org/2000/svg" xmlns:xlink="http://www.w3.org/1999/xlink">
<g id="graph0" class="graph" transform="scale(1 1) rotate(0) translate(4 709)">
<title>%3</title>
<polygon fill="#eeeeee" stroke="transparent" points="-4,4 -4,-709 479,-709 479,4 -4,4"/>
<!-- WasteCategory -->
<g id="node1" class="node">
<title>WasteCategory</title>
<g id="a_node1"><a xlink:href="http://WasteCategory_details.html" xlink:title="&lt;TABLE&gt;">
<polygon fill="#3f51b5" stroke="transparent" points="87,-79.5 87,-98.5 302,-98.5 302,-79.5 87,-79.5"/>
<polygon fill="none" stroke="black" points="87,-79.5 87,-98.5 302,-98.5 302,-79.5 87,-79.5"/>
<text text-anchor="start" x="148.5" y="-85.9" font-family="Roboto" font-size="12.00" fill="white">WasteCategory</text>
<polygon fill="#bbdefb" stroke="transparent" points="87,-60.5 87,-79.5 187,-79.5 187,-60.5 87,-60.5"/>
<polygon fill="none" stroke="black" points="87,-60.5 87,-79.5 187,-79.5 187,-60.5 87,-60.5"/>
<text text-anchor="start" x="110" y="-66.9" font-family="Roboto" font-size="12.00">category</text>
<polygon fill="#bbdefb" stroke="transparent" points="187,-60.5 187,-79.5 302,-79.5 302,-60.5 187,-60.5"/>
<polygon fill="none" stroke="black" points="187,-60.5 187,-79.5 302,-79.5 302,-60.5 187,-60.5"/>
<text text-anchor="start" x="190" y="-66.9" font-family="Roboto" font-size="12.00">VARCHAR(32) (PK)</text>
<polygon fill="#bbdefb" stroke="transparent" points="87,-41.5 87,-60.5 187,-60.5 187,-41.5 87,-41.5"/>
<polygon fill="none" stroke="black" points="87,-41.5 87,-60.5 187,-60.5 187,-41.5 87,-41.5"/>
<text text-anchor="start" x="90" y="-47.9" font-family="Roboto" font-size="12.00">time_to_recycle</text>
<polygon fill="#bbdefb" stroke="transparent" points="187,-41.5 187,-60.5 302,-60.5 302,-41.5 187,-41.5"/>
<polygon fill="none" stroke="black" points="187,-41.5 187,-60.5 302,-60.5 302,-41.5 187,-41.5"/>
<text text-anchor="start" x="207.5" y="-47.9" font-family="Roboto" font-size="12.00">DATETIME ()</text>
<polygon fill="#bbdefb" stroke="transparent" points="87,-22.5 87,-41.5 187,-41.5 187,-22.5 87,-22.5"/>
<polygon fill="none" stroke="black" points="87,-22.5 87,-41.5 187,-41.5 187,-22.5 87,-22.5"/>
<text text-anchor="start" x="105" y="-28.9" font-family="Roboto" font-size="12.00">created_at</text>
<polygon fill="#bbdefb" stroke="transparent" points="187,-22.5 187,-41.5 302,-41.5 302,-22.5 187,-22.5"/>
<polygon fill="none" stroke="black" points="187,-22.5 187,-41.5 302,-41.5 302,-22.5 187,-22.5"/>
<text text-anchor="start" x="203" y="-28.9" font-family="Roboto" font-size="12.00">TIMESTAMP ()</text>
<polygon fill="#bbdefb" stroke="transparent" points="87,-3.5 87,-22.5 187,-22.5 187,-3.5 87,-3.5"/>
<polygon fill="none" stroke="black" points="87,-3.5 87,-22.5 187,-22.5 187,-3.5 87,-3.5"/>
<text text-anchor="start" x="103" y="-9.9" font-family="Roboto" font-size="12.00">updated_at</text>
<polygon fill="#bbdefb" stroke="transparent" points="187,-3.5 187,-22.5 302,-22.5 302,-3.5 187,-3.5"/>
<polygon fill="none" stroke="black" points="187,-3.5 187,-22.5 302,-22.5 302,-3.5 187,-3.5"/>
<text text-anchor="start" x="203" y="-9.9" font-family="Roboto" font-size="12.00">TIMESTAMP ()</text>
</a>
</g>
</g>
<!-- Polluter_OO -->
<g id="node2" class="node">
<title>Polluter_OO</title>
<g id="a_node2"><a xlink:href="http://Polluter_OO_details.html" xlink:title="&lt;TABLE&gt;">
<polygon fill="#3f51b5" stroke="transparent" points="34,-474.5 34,-493.5 223,-493.5 223,-474.5 34,-474.5"/>
<polygon fill="none" stroke="black" points="34,-474.5 34,-493.5 223,-493.5 223,-474.5 34,-474.5"/>
<text text-anchor="start" x="93" y="-480.9" font-family="Roboto" font-size="12.00" fill="white">Polluter_OO</text>
<polygon fill="#bbdefb" stroke="transparent" points="34,-455.5 34,-474.5 108,-474.5 108,-455.5 34,-455.5"/>
<polygon fill="none" stroke="black" points="34,-455.5 34,-474.5 108,-474.5 108,-455.5 34,-455.5"/>
<text text-anchor="start" x="53.5" y="-461.9" font-family="Roboto" font-size="12.00">name</text>
<polygon fill="#bbdefb" stroke="transparent" points="108,-455.5 108,-474.5 223,-474.5 223,-455.5 108,-455.5"/>
<polygon fill="none" stroke="black" points="108,-455.5 108,-474.5 223,-474.5 223,-455.5 108,-455.5"/>
<text text-anchor="start" x="118.5" y="-461.9" font-family="Roboto" font-size="12.00">VARCHAR(64) ()</text>
<polygon fill="#bbdefb" stroke="transparent" points="34,-436.5 34,-455.5 108,-455.5 108,-436.5 34,-436.5"/>
<polygon fill="none" stroke="black" points="34,-436.5 34,-455.5 108,-455.5 108,-436.5 34,-436.5"/>
<text text-anchor="start" x="53" y="-442.9" font-family="Roboto" font-size="12.00">x_geo</text>
<polygon fill="#bbdefb" stroke="transparent" points="108,-436.5 108,-455.5 223,-455.5 223,-436.5 108,-436.5"/>
<polygon fill="none" stroke="black" points="108,-436.5 108,-455.5 223,-455.5 223,-436.5 108,-436.5"/>
<text text-anchor="start" x="111" y="-442.9" font-family="Roboto" font-size="12.00">NUMERIC(12, 6) ()</text>
<polygon fill="#bbdefb" stroke="transparent" points="34,-417.5 34,-436.5 108,-436.5 108,-417.5 34,-417.5"/>
<polygon fill="none" stroke="black" points="34,-417.5 34,-436.5 108,-436.5 108,-417.5 34,-417.5"/>
<text text-anchor="start" x="53" y="-423.9" font-family="Roboto" font-size="12.00">y_geo</text>
<polygon fill="#bbdefb" stroke="transparent" points="108,-417.5 108,-436.5 223,-436.5 223,-417.5 108,-417.5"/>
<polygon fill="none" stroke="black" points="108,-417.5 108,-436.5 223,-436.5 223,-417.5 108,-417.5"/>
<text text-anchor="start" x="111" y="-423.9" font-family="Roboto" font-size="12.00">NUMERIC(12, 6) ()</text>
<polygon fill="#bbdefb" stroke="transparent" points="34,-398.5 34,-417.5 108,-417.5 108,-398.5 34,-398.5"/>
<polygon fill="none" stroke="black" points="34,-398.5 34,-417.5 108,-417.5 108,-398.5 34,-398.5"/>
<text text-anchor="start" x="65.5" y="-404.9" font-family="Roboto" font-size="12.00">id</text>
<polygon fill="#bbdefb" stroke="transparent" points="108,-398.5 108,-417.5 223,-417.5 223,-398.5 108,-398.5"/>
<polygon fill="none" stroke="black" points="108,-398.5 108,-417.5 223,-417.5 223,-398.5 108,-398.5"/>
<text text-anchor="start" x="122.5" y="-404.9" font-family="Roboto" font-size="12.00">CHAR(36) (PK)</text>
<polygon fill="#bbdefb" stroke="transparent" points="34,-379.5 34,-398.5 108,-398.5 108,-379.5 34,-379.5"/>
<polygon fill="none" stroke="black" points="34,-379.5 34,-398.5 108,-398.5 108,-379.5 34,-379.5"/>
<text text-anchor="start" x="39" y="-385.9" font-family="Roboto" font-size="12.00">created_at</text>
<polygon fill="#bbdefb" stroke="transparent" points="108,-379.5 108,-398.5 223,-398.5 223,-379.5 108,-379.5"/>
<polygon fill="none" stroke="black" points="108,-379.5 108,-398.5 223,-398.5 223,-379.5 108,-379.5"/>
<text text-anchor="start" x="124" y="-385.9" font-family="Roboto" font-size="12.00">TIMESTAMP ()</text>
<polygon fill="#bbdefb" stroke="transparent" points="34,-360.5 34,-379.5 108,-379.5 108,-360.5 34,-360.5"/>
<polygon fill="none" stroke="black" points="34,-360.5 34,-379.5 108,-379.5 108,-360.5 34,-360.5"/>
<text text-anchor="start" x="37" y="-366.9" font-family="Roboto" font-size="12.00">updated_at</text>
<polygon fill="#bbdefb" stroke="transparent" points="108,-360.5 108,-379.5 223,-379.5 223,-360.5 108,-360.5"/>
<polygon fill="none" stroke="black" points="108,-360.5 108,-379.5 223,-379.5 223,-360.5 108,-360.5"/>
<text text-anchor="start" x="124" y="-366.9" font-family="Roboto" font-size="12.00">TIMESTAMP ()</text>
</a>
</g>
</g>
<!-- PolluterWaste -->
<g id="node3" class="node">
<title>PolluterWaste</title>
<g id="a_node3"><a xlink:href="http://PolluterWaste_details.html" xlink:title="&lt;TABLE&gt;">
<polygon fill="#3f51b5" stroke="transparent" points="93,-682 93,-701 267,-701 267,-682 93,-682"/>
<polygon fill="none" stroke="black" points="93,-682 93,-701 267,-701 267,-682 93,-682"/>
<text text-anchor="start" x="139" y="-688.4" font-family="Roboto" font-size="12.00" fill="white">PolluterWaste</text>
<polygon fill="#bbdefb" stroke="transparent" points="93,-663 93,-682 167,-682 167,-663 93,-663"/>
<polygon fill="none" stroke="black" points="93,-663 93,-682 167,-682 167,-663 93,-663"/>
<text text-anchor="start" x="106.5" y="-669.4" font-family="Roboto" font-size="12.00">amount</text>
<polygon fill="#bbdefb" stroke="transparent" points="167,-663 167,-682 267,-682 267,-663 167,-663"/>
<polygon fill="none" stroke="black" points="167,-663 167,-682 267,-682 267,-663 167,-663"/>
<text text-anchor="start" x="184" y="-669.4" font-family="Roboto" font-size="12.00">INTEGER ()</text>
<polygon fill="#bbdefb" stroke="transparent" points="93,-644 93,-663 167,-663 167,-644 93,-644"/>
<polygon fill="none" stroke="black" points="93,-644 93,-663 167,-663 167,-644 93,-644"/>
<text text-anchor="start" x="103" y="-650.4" font-family="Roboto" font-size="12.00">category</text>
<polygon fill="#bbdefb" stroke="transparent" points="167,-644 167,-663 267,-663 267,-644 167,-644"/>
<polygon fill="none" stroke="black" points="167,-644 167,-663 267,-663 267,-644 167,-644"/>
<text text-anchor="start" x="170" y="-650.4" font-family="Roboto" font-size="12.00">VARCHAR(32) ()</text>
<polygon fill="#bbdefb" stroke="transparent" points="93,-625 93,-644 167,-644 167,-625 93,-625"/>
<polygon fill="none" stroke="black" points="93,-625 93,-644 167,-644 167,-625 93,-625"/>
<text text-anchor="start" x="98.5" y="-631.4" font-family="Roboto" font-size="12.00">polluter_id</text>
<polygon fill="#bbdefb" stroke="transparent" points="167,-625 167,-644 267,-644 267,-625 167,-625"/>
<polygon fill="none" stroke="black" points="167,-625 167,-644 267,-644 267,-625 167,-625"/>
<text text-anchor="start" x="181.5" y="-631.4" font-family="Roboto" font-size="12.00">CHAR(36) ()</text>
<polygon fill="#bbdefb" stroke="transparent" points="93,-606 93,-625 167,-625 167,-606 93,-606"/>
<polygon fill="none" stroke="black" points="93,-606 93,-625 167,-625 167,-606 93,-606"/>
<text text-anchor="start" x="96.5" y="-612.4" font-family="Roboto" font-size="12.00">contract_id</text>
<polygon fill="#bbdefb" stroke="transparent" points="167,-606 167,-625 267,-625 267,-606 167,-606"/>
<polygon fill="none" stroke="black" points="167,-606 167,-625 267,-625 267,-606 167,-606"/>
<text text-anchor="start" x="181.5" y="-612.4" font-family="Roboto" font-size="12.00">CHAR(36) ()</text>
<polygon fill="#bbdefb" stroke="transparent" points="93,-587 93,-606 167,-606 167,-587 93,-587"/>
<polygon fill="none" stroke="black" points="93,-587 93,-606 167,-606 167,-587 93,-587"/>
<text text-anchor="start" x="124.5" y="-593.4" font-family="Roboto" font-size="12.00">id</text>
<polygon fill="#bbdefb" stroke="transparent" points="167,-587 167,-606 267,-606 267,-587 167,-587"/>
<polygon fill="none" stroke="black" points="167,-587 167,-606 267,-606 267,-587 167,-587"/>
<text text-anchor="start" x="174" y="-593.4" font-family="Roboto" font-size="12.00">CHAR(36) (PK)</text>
<polygon fill="#bbdefb" stroke="transparent" points="93,-568 93,-587 167,-587 167,-568 93,-568"/>
<polygon fill="none" stroke="black" points="93,-568 93,-587 167,-587 167,-568 93,-568"/>
<text text-anchor="start" x="98" y="-574.4" font-family="Roboto" font-size="12.00">created_at</text>
<polygon fill="#bbdefb" stroke="transparent" points="167,-568 167,-587 267,-587 267,-568 167,-568"/>
<polygon fill="none" stroke="black" points="167,-568 167,-587 267,-587 267,-568 167,-568"/>
<text text-anchor="start" x="175.5" y="-574.4" font-family="Roboto" font-size="12.00">TIMESTAMP ()</text>
<polygon fill="#bbdefb" stroke="transparent" points="93,-549 93,-568 167,-568 167,-549 93,-549"/>
<polygon fill="none" stroke="black" points="93,-549 93,-568 167,-568 167,-549 93,-549"/>
<text text-anchor="start" x="96" y="-555.4" font-family="Roboto" font-size="12.00">updated_at</text>
<polygon fill="#bbdefb" stroke="transparent" points="167,-549 167,-568 267,-568 267,-549 167,-549"/>
<polygon fill="none" stroke="black" points="167,-549 167,-568 267,-568 267,-549 167,-549"/>
<text text-anchor="start" x="175.5" y="-555.4" font-family="Roboto" font-size="12.00">TIMESTAMP ()</text>
</a>
</g>
</g>
<!-- Polluter_OO&#45;&gt;PolluterWaste -->
<g id="edge1" class="edge">
<title>Polluter_OO&#45;&gt;PolluterWaste</title>
<g id="a_edge1"><a xlink:title="Relation between Polluter_OO and PolluterWaste">
<path fill="none" stroke="#1e88e5" stroke-dasharray="5,2" d="M152.88,-498.46C154.7,-504.36 156.44,-510.27 158,-516 159.66,-522.12 161.27,-528.46 162.8,-534.87"/>
<polygon fill="#1e88e5" stroke="#1e88e5" points="159.47,-536.02 165.13,-544.98 166.29,-534.44 159.47,-536.02"/>
</a>
</g>
<text text-anchor="middle" x="197.5" y="-519" font-family="Roboto" font-size="10.00">polluter_waste</text>
</g>
<!-- PolluterStorage -->
<g id="node4" class="node">
<title>PolluterStorage</title>
<g id="a_node4"><a xlink:href="http://PolluterStorage_details.html" xlink:title="&lt;TABLE&gt;">
<polygon fill="#3f51b5" stroke="transparent" points="8,-287 8,-306 232,-306 232,-287 8,-287"/>
<polygon fill="none" stroke="black" points="8,-287 8,-306 232,-306 232,-287 8,-287"/>
<text text-anchor="start" x="73.5" y="-293.4" font-family="Roboto" font-size="12.00" fill="white">PolluterStorage</text>
<polygon fill="#bbdefb" stroke="transparent" points="8,-268 8,-287 132,-287 132,-268 8,-268"/>
<polygon fill="none" stroke="black" points="8,-268 8,-287 132,-287 132,-268 8,-268"/>
<text text-anchor="start" x="43" y="-274.4" font-family="Roboto" font-size="12.00">category</text>
<polygon fill="#bbdefb" stroke="transparent" points="132,-268 132,-287 232,-287 232,-268 132,-268"/>
<polygon fill="none" stroke="black" points="132,-268 132,-287 232,-287 232,-268 132,-268"/>
<text text-anchor="start" x="135" y="-274.4" font-family="Roboto" font-size="12.00">VARCHAR(32) ()</text>
<polygon fill="#bbdefb" stroke="transparent" points="8,-249 8,-268 132,-268 132,-249 8,-249"/>
<polygon fill="none" stroke="black" points="8,-249 8,-268 132,-268 132,-249 8,-249"/>
<text text-anchor="start" x="46.5" y="-255.4" font-family="Roboto" font-size="12.00">amount</text>
<polygon fill="#bbdefb" stroke="transparent" points="132,-249 132,-268 232,-268 232,-249 132,-249"/>
<polygon fill="none" stroke="black" points="132,-249 132,-268 232,-268 232,-249 132,-249"/>
<text text-anchor="start" x="149" y="-255.4" font-family="Roboto" font-size="12.00">INTEGER ()</text>
<polygon fill="#bbdefb" stroke="transparent" points="8,-230 8,-249 132,-249 132,-230 8,-230"/>
<polygon fill="none" stroke="black" points="8,-230 8,-249 132,-249 132,-230 8,-230"/>
<text text-anchor="start" x="11" y="-236.4" font-family="Roboto" font-size="12.00">contracted_amount</text>
<polygon fill="#bbdefb" stroke="transparent" points="132,-230 132,-249 232,-249 232,-230 132,-230"/>
<polygon fill="none" stroke="black" points="132,-230 132,-249 232,-249 232,-230 132,-230"/>
<text text-anchor="start" x="149" y="-236.4" font-family="Roboto" font-size="12.00">INTEGER ()</text>
<polygon fill="#bbdefb" stroke="transparent" points="8,-211 8,-230 132,-230 132,-211 8,-211"/>
<polygon fill="none" stroke="black" points="8,-211 8,-230 132,-230 132,-211 8,-211"/>
<text text-anchor="start" x="38.5" y="-217.4" font-family="Roboto" font-size="12.00">polluter_id</text>
<polygon fill="#bbdefb" stroke="transparent" points="132,-211 132,-230 232,-230 232,-211 132,-211"/>
<polygon fill="none" stroke="black" points="132,-211 132,-230 232,-230 232,-211 132,-211"/>
<text text-anchor="start" x="146.5" y="-217.4" font-family="Roboto" font-size="12.00">CHAR(36) ()</text>
<polygon fill="#bbdefb" stroke="transparent" points="8,-192 8,-211 132,-211 132,-192 8,-192"/>
<polygon fill="none" stroke="black" points="8,-192 8,-211 132,-211 132,-192 8,-192"/>
<text text-anchor="start" x="64.5" y="-198.4" font-family="Roboto" font-size="12.00">id</text>
<polygon fill="#bbdefb" stroke="transparent" points="132,-192 132,-211 232,-211 232,-192 132,-192"/>
<polygon fill="none" stroke="black" points="132,-192 132,-211 232,-211 232,-192 132,-192"/>
<text text-anchor="start" x="139" y="-198.4" font-family="Roboto" font-size="12.00">CHAR(36) (PK)</text>
<polygon fill="#bbdefb" stroke="transparent" points="8,-173 8,-192 132,-192 132,-173 8,-173"/>
<polygon fill="none" stroke="black" points="8,-173 8,-192 132,-192 132,-173 8,-173"/>
<text text-anchor="start" x="38" y="-179.4" font-family="Roboto" font-size="12.00">created_at</text>
<polygon fill="#bbdefb" stroke="transparent" points="132,-173 132,-192 232,-192 232,-173 132,-173"/>
<polygon fill="none" stroke="black" points="132,-173 132,-192 232,-192 232,-173 132,-173"/>
<text text-anchor="start" x="140.5" y="-179.4" font-family="Roboto" font-size="12.00">TIMESTAMP ()</text>
<polygon fill="#bbdefb" stroke="transparent" points="8,-154 8,-173 132,-173 132,-154 8,-154"/>
<polygon fill="none" stroke="black" points="8,-154 8,-173 132,-173 132,-154 8,-154"/>
<text text-anchor="start" x="36" y="-160.4" font-family="Roboto" font-size="12.00">updated_at</text>
<polygon fill="#bbdefb" stroke="transparent" points="132,-154 132,-173 232,-173 232,-154 132,-154"/>
<polygon fill="none" stroke="black" points="132,-154 132,-173 232,-173 232,-154 132,-154"/>
<text text-anchor="start" x="140.5" y="-160.4" font-family="Roboto" font-size="12.00">TIMESTAMP ()</text>
</a>
</g>
</g>
<!-- Polluter_OO&#45;&gt;PolluterStorage -->
<g id="edge2" class="edge">
<title>Polluter_OO&#45;&gt;PolluterStorage</title>
<g id="a_edge2"><a xlink:title="Relation between Polluter_OO and PolluterStorage">
<path fill="none" stroke="#1e88e5" stroke-dasharray="5,2" d="M73.32,-356.83C70.42,-351 67.92,-345.03 66,-339 64,-332.71 63.3,-326.33 63.63,-319.98"/>
<polygon fill="#1e88e5" stroke="#1e88e5" points="67.1,-320.42 64.94,-310.04 60.16,-319.5 67.1,-320.42"/>
</a>
</g>
<text text-anchor="middle" x="106" y="-331" font-family="Roboto" font-size="10.00">polluter_storage</text>
</g>
<!-- PolluterWaste&#45;&gt;WasteCategory -->
<g id="edge4" class="edge">
<title>PolluterWaste&#45;&gt;WasteCategory</title>
<g id="a_edge4"><a xlink:title="Relation between PolluterWaste and WasteCategory">
<path fill="none" stroke="#1e88e5" stroke-dasharray="5,2" d="M231.32,-544.97C233.9,-539.03 236.18,-533.01 238,-527 286.7,-366.6 291.58,-312.13 249,-150 245.64,-137.19 240.17,-124.3 233.95,-112.27"/>
<polygon fill="#1e88e5" stroke="#1e88e5" points="236.91,-110.38 229.08,-103.25 230.76,-113.71 236.91,-110.38"/>
</a>
</g>
<text text-anchor="middle" x="292" y="-331" font-family="Roboto" font-size="10.00">waste</text>
</g>
<!-- PolluterWaste&#45;&gt;Polluter_OO -->
<g id="edge3" class="edge">
<title>PolluterWaste&#45;&gt;Polluter_OO</title>
<g id="a_edge3"><a xlink:title="Relation between PolluterWaste and Polluter_OO">
<path fill="none" stroke="#1e88e5" stroke-dasharray="5,2" d="M122.76,-544.8C120.1,-538.95 117.8,-532.99 116,-527 114.18,-520.94 113.13,-514.58 112.67,-508.15"/>
<polygon fill="#1e88e5" stroke="#1e88e5" points="116.16,-507.91 112.39,-498 109.16,-508.09 116.16,-507.91"/>
</a>
</g>
<text text-anchor="middle" x="135" y="-519" font-family="Roboto" font-size="10.00">polluter</text>
</g>
<!-- PolluterStorage&#45;&gt;WasteCategory -->
<g id="edge6" class="edge">
<title>PolluterStorage&#45;&gt;WasteCategory</title>
<g id="a_edge6"><a xlink:title="Relation between PolluterStorage and WasteCategory">
<path fill="none" stroke="#1e88e5" stroke-dasharray="5,2" d="M153.21,-149.78C158.46,-137.28 163.8,-124.52 168.83,-112.54"/>
<polygon fill="#1e88e5" stroke="#1e88e5" points="172.14,-113.69 172.78,-103.12 165.68,-110.99 172.14,-113.69"/>
</a>
</g>
<text text-anchor="middle" x="179" y="-124" font-family="Roboto" font-size="10.00">waste</text>
</g>
<!-- PolluterStorage&#45;&gt;Polluter_OO -->
<g id="edge5" class="edge">
<title>PolluterStorage&#45;&gt;Polluter_OO</title>
<g id="a_edge5"><a xlink:title="Relation between PolluterStorage and Polluter_OO">
<path fill="none" stroke="#1e88e5" stroke-dasharray="5,2" d="M145.38,-310.2C146.6,-319.84 146.96,-329.6 146,-339 145.73,-341.66 145.41,-344.35 145.06,-347.07"/>
<polygon fill="#1e88e5" stroke="#1e88e5" points="141.6,-346.57 143.63,-356.97 148.52,-347.57 141.6,-346.57"/>
</a>
</g>
<text text-anchor="middle" x="166" y="-331" font-family="Roboto" font-size="10.00">polluter</text>
</g>
<!-- TestCI3 -->
<g id="node5" class="node">
<title>TestCI3</title>
<g id="a_node5"><a xlink:href="http://TestCI3_details.html" xlink:title="&lt;TABLE&gt;">
<polygon fill="#3f51b5" stroke="transparent" points="301,-653 301,-672 467,-672 467,-653 301,-653"/>
<polygon fill="none" stroke="black" points="301,-653 301,-672 467,-672 467,-653 301,-653"/>
<text text-anchor="start" x="362.5" y="-659.4" font-family="Roboto" font-size="12.00" fill="white">TestCI3</text>
<polygon fill="#bbdefb" stroke="transparent" points="301,-634 301,-653 375,-653 375,-634 301,-634"/>
<polygon fill="none" stroke="black" points="301,-634 301,-653 375,-653 375,-634 301,-634"/>
<text text-anchor="start" x="327" y="-640.4" font-family="Roboto" font-size="12.00">kek</text>
<polygon fill="#bbdefb" stroke="transparent" points="375,-634 375,-653 467,-653 467,-634 375,-634"/>
<polygon fill="none" stroke="black" points="375,-634 375,-653 467,-653 467,-634 375,-634"/>
<text text-anchor="start" x="385.5" y="-640.4" font-family="Roboto" font-size="12.00">CHAR(32) ()</text>
<polygon fill="#bbdefb" stroke="transparent" points="301,-615 301,-634 375,-634 375,-615 301,-615"/>
<polygon fill="none" stroke="black" points="301,-615 301,-634 375,-634 375,-615 301,-615"/>
<text text-anchor="start" x="332.5" y="-621.4" font-family="Roboto" font-size="12.00">id</text>
<polygon fill="#bbdefb" stroke="transparent" points="375,-615 375,-634 467,-634 467,-615 375,-615"/>
<polygon fill="none" stroke="black" points="375,-615 375,-634 467,-634 467,-615 375,-615"/>
<text text-anchor="start" x="378" y="-621.4" font-family="Roboto" font-size="12.00">CHAR(36) (PK)</text>
<polygon fill="#bbdefb" stroke="transparent" points="301,-596 301,-615 375,-615 375,-596 301,-596"/>
<polygon fill="none" stroke="black" points="301,-596 301,-615 375,-615 375,-596 301,-596"/>
<text text-anchor="start" x="306" y="-602.4" font-family="Roboto" font-size="12.00">created_at</text>
<polygon fill="#bbdefb" stroke="transparent" points="375,-596 375,-615 467,-615 467,-596 375,-596"/>
<polygon fill="none" stroke="black" points="375,-596 375,-615 467,-615 467,-596 375,-596"/>
<text text-anchor="start" x="379.5" y="-602.4" font-family="Roboto" font-size="12.00">TIMESTAMP ()</text>
<polygon fill="#bbdefb" stroke="transparent" points="301,-577 301,-596 375,-596 375,-577 301,-577"/>
<polygon fill="none" stroke="black" points="301,-577 301,-596 375,-596 375,-577 301,-577"/>
<text text-anchor="start" x="304" y="-583.4" font-family="Roboto" font-size="12.00">updated_at</text>
<polygon fill="#bbdefb" stroke="transparent" points="375,-577 375,-596 467,-596 467,-577 375,-577"/>
<polygon fill="none" stroke="black" points="375,-577 375,-596 467,-596 467,-577 375,-577"/>
<text text-anchor="start" x="379.5" y="-583.4" font-family="Roboto" font-size="12.00">TIMESTAMP ()</text>
</a>
</g>
</g>
</g>
</svg>
